<?xml version="1.0" standalone="no"?><!DOCTYPE svg PUBLIC "-//W3C//DTD SVG 1.1//EN" "http://www.w3.org/Graphics/SVG/1.1/DTD/svg11.dtd"><svg t="1585564314946" class="icon" viewBox="0 0 1024 1024" version="1.1" xmlns="http://www.w3.org/2000/svg" p-id="10001" xmlns:xlink="http://www.w3.org/1999/xlink" width="200" height="200"><defs><style type="text/css"></style></defs><path d="M262.7 532.4c-11.2 0-20.2-9-20.2-20.2s9-20.2 20.2-20.2 20.2 9 20.2 20.2-6.8 20.2-20.2 20.2m-91.8 176.9V342l199.4 116.5v221.8c0 26.9-20.2 47-47 47-26.9 0-47-20.2-47-47V563.7c22.4-6.7 38.1-26.9 38.1-49.3 0-29.1-24.6-53.8-53.8-53.8-29.1 0-49.3 24.6-49.3 53.8 0 24.6 15.7 42.6 38.1 49.3v116.5c0 42.6 35.8 78.4 78.4 78.4 42.6 0 78.4-35.8 78.4-78.4v-336c0-26.9 20.2-47 47-47 26.9 0 47 20.2 47 47v336c0 42.6 35.8 78.4 78.4 78.4 42.6 0 78.4-35.8 78.4-78.4v-60.5l177 103-318.2 183.8-344.9-197.2zM760 492.1c11.2 0 20.2 9 20.2 20.2s-9 20.2-20.2 20.2-20.2-9-20.2-20.2c0-11.3 9-20.2 20.2-20.2m94.1-179.2v367.4L654.7 563.7V342c0-26.9 20.2-47 47-47 26.9 0 47 20.2 47 47v116.5c-22.4 6.7-38.1 26.9-38.1 49.3 0 29.1 24.6 53.8 53.8 53.8 29.1 0 53.8-24.6 53.8-53.8 0-24.6-15.7-42.6-38.1-49.3V342c0-42.6-35.8-78.4-78.4-78.4-42.6 0-78.4 35.8-78.4 78.4v336c0 26.9-20.2 47-47 47-26.9 0-47-20.2-47-47V342c0-42.6-35.8-78.4-78.4-78.4-42.6 0-78.4 35.8-78.4 78.4v60.5l-179.2-103 318.1-183.7 342.7 197.1zM511.3 64.2l-387.5 224v448l387.5 224 387.5-224v-448l-387.5-224z" p-id="10002"></path></svg>