<?xml version="1.0" standalone="no"?><!DOCTYPE svg PUBLIC "-//W3C//DTD SVG 1.1//EN" "http://www.w3.org/Graphics/SVG/1.1/DTD/svg11.dtd"><svg t="1586513761357" class="icon" viewBox="0 0 1024 1024" version="1.1" xmlns="http://www.w3.org/2000/svg" p-id="14894" xmlns:xlink="http://www.w3.org/1999/xlink" width="200" height="200"><defs><style type="text/css"></style></defs><path d="M512 546.816c-130.56 0-236.544-105.984-236.544-236.544S381.44 73.728 512 73.728c16.384 0 29.184 13.312 29.184 29.184l0 414.72C541.184 533.504 528.384 546.816 512 546.816zM482.816 134.656c-84.48 13.824-148.48 87.552-148.48 175.616s64.512 161.792 148.48 175.616L482.816 134.656z" p-id="14895"></path><path d="M926.72 546.816l-414.72 0c-16.384 0-29.184-13.312-29.184-29.184 0-130.56 105.984-236.544 236.544-236.544s236.544 105.984 236.544 236.544C955.904 533.504 942.592 546.816 926.72 546.816zM543.744 487.936l351.232 0c-13.824-84.48-87.552-148.48-175.616-148.48S557.568 403.968 543.744 487.936z" p-id="14896"></path><path d="M512 961.536c-16.384 0-29.184-13.312-29.184-29.184l0-414.72c0-16.384 13.312-29.184 29.184-29.184 130.56 0 236.544 105.984 236.544 236.544S642.56 961.536 512 961.536zM541.184 549.376l0 351.232c84.48-13.824 148.48-87.552 148.48-175.616S625.664 563.2 541.184 549.376z" p-id="14897"></path><path d="M304.64 754.176c-130.56 0-236.544-105.984-236.544-236.544 0-16.384 13.312-29.184 29.184-29.184l414.72 0c16.384 0 29.184 13.312 29.184 29.184C541.184 647.68 435.2 754.176 304.64 754.176zM129.024 546.816c13.824 84.48 87.552 148.48 175.616 148.48s161.792-64.512 175.616-148.48L129.024 546.816z" p-id="14898"></path><path d="M423.936 333.824c-16.384 0-29.184-13.312-29.184-29.184L394.752 221.696c0-16.384 13.312-29.184 29.184-29.184 16.384 0 29.184 13.312 29.184 29.184l0 82.944C453.632 321.024 440.32 333.824 423.936 333.824z" p-id="14899"></path><path d="M600.064 856.576c-16.384 0-29.184-13.312-29.184-29.184l0-82.944c0-16.384 13.312-29.184 29.184-29.184s29.184 13.312 29.184 29.184l0 82.944C629.248 843.776 615.936 856.576 600.064 856.576z" p-id="14900"></path><path d="M816.128 458.752l-82.944 0c-16.384 0-29.184-13.312-29.184-29.184s13.312-29.184 29.184-29.184l82.944 0c16.384 0 29.184 13.312 29.184 29.184S832 458.752 816.128 458.752z" p-id="14901"></path><path d="M293.376 634.88 210.432 634.88c-16.384 0-29.184-13.312-29.184-29.184s13.312-29.184 29.184-29.184l82.944 0c16.384 0 29.184 13.312 29.184 29.184S309.76 634.88 293.376 634.88z" p-id="14902"></path></svg>