<?xml version="1.0" standalone="no"?><!DOCTYPE svg PUBLIC "-//W3C//DTD SVG 1.1//EN" "http://www.w3.org/Graphics/SVG/1.1/DTD/svg11.dtd"><svg t="1586514435980" class="icon" viewBox="0 0 1024 1024" version="1.1" xmlns="http://www.w3.org/2000/svg" p-id="21045" xmlns:xlink="http://www.w3.org/1999/xlink" width="200" height="200"><defs><style type="text/css"></style></defs><path d="M370.82 333.09h67.81v49.11h-67.81zM483.94 382.19h68.02v-49.1h-68.03l0.01 0.02zM600.08 333.09h64.73v49.11h-64.73z" p-id="21046"></path><path d="M878.46 214.71c-10.99-8.95-25.35-13.97-40.27-13.97-1.43 0-2.67 0-4.09 0.13-0.83 0.12-10.29 0.64-25.21 0.64-24.65 0-72.66-1.4-118.15-11.27-58.71-12.67-126.59-71.33-146.3-82.98a66.15 66.15 0 0 0-65.61 0c-2.41 1.39-73.39 67.99-142.81 82.96-45.47 9.87-94.34 11.27-118.97 11.27-14.79 0-24.37-0.52-25.21-0.64-16.23-0.99-32.22 3.99-44.36 13.83-11.96 9.86-18.72 23.44-18.72 37.77v129.6C128.74 861.3 486 922.89 501.2 925.3a68.685 68.685 0 0 0 20.84 0v0.02c15.22-2.41 375.15-64.14 375.15-543.23V252.6c0.03-14.5-6.79-28.3-18.73-37.89zM394.3 734.11l-19.92-45.83c8.3-6.54 13.27-14.73 13.27-24.55v-88.38h-77.99v-49.11h127.78v130.95a770.44 770.44 0 0 0 58.09-34.38l14.93 52.38a699.723 699.723 0 0 1-116.16 58.92z m-41.49-273.35l34.84-31.09c29.89 14.73 56.42 32.73 81.32 52.36l-31.51 34.38c-26.56-21.27-54.78-39.27-84.65-55.65z m358.48 207.89c0 42.57-21.59 63.82-61.41 63.82h-56.42l-11.61-50.73c18.24 1.64 34.84 3.27 49.77 3.27 16.6 0 24.9-9.82 24.9-29.46h1.66V441.14h53.11v227.51zM543.66 635.9V467.32h49.79V635.9h-49.79z m172.6-211.14H322.93V290.54h393.33v134.22z" p-id="21047"></path></svg>