<?xml version="1.0" standalone="no"?><!DOCTYPE svg PUBLIC "-//W3C//DTD SVG 1.1//EN" "http://www.w3.org/Graphics/SVG/1.1/DTD/svg11.dtd"><svg t="1586513633749" class="icon" viewBox="0 0 1024 1024" version="1.1" xmlns="http://www.w3.org/2000/svg" p-id="13797" xmlns:xlink="http://www.w3.org/1999/xlink" width="200" height="200"><defs><style type="text/css"></style></defs><path d="M953.868488 235.270244c-2.497561-4.995122-4.795317-12.288-9.790439-14.585756L802.41639 79.022829h2.497561c-9.790439-9.790439-22.078439-14.585756-36.664195-14.585756H255.650341c-12.288 0-24.376195 4.795317-34.166634 14.585756L82.519415 220.684488c-4.795317 2.497561-9.790439 9.790439-12.288 14.585756-2.497561 7.292878-2.497561 14.585756-2.497561 19.580878 7.292878 368.440195 151.452098 602.811317 427.182829 702.813658 9.790439 2.497561 21.878634 2.497561 34.166634 0C807.31161 857.662439 948.873366 623.291317 956.166244 254.75122c0.199805-4.89522 0.199805-12.188098-2.297756-19.480976zM529.18322 908.91239c-12.288 2.497561-22.078439 2.497561-31.669074 0C248.357463 816.202927 121.481366 606.307902 111.690927 276.729756c0-7.292878 0-12.288 2.497561-19.580878 2.497561-4.995122 7.292878-9.790439 12.288-14.585756l124.478439-124.478439c9.790439-9.790439 19.580878-14.585756 31.669073-14.585756h461.349463c12.288 0 21.878634 4.795317 29.371317 14.585756L900.120976 242.762927c4.795317 4.795317 7.292878 9.790439 9.790439 14.585756 2.497561 7.292878 2.497561 12.088195 4.795317 19.580878-9.790439 329.378341-139.064195 539.273366-385.523512 631.982829zM321.685854 735.581659h2.497561l539.47317-429.580488c-17.083317 283.123512-134.168976 468.642341-349.059122 554.058927-75.825951-29.271415-139.264-70.730927-192.911609-124.478439z m441.768585-563.849366l82.919024 82.919024-554.058926 441.96839v2.497561c-24.376195-31.669073-43.957073-65.835707-61.040391-102.499902 0 0 2.497561-2.497561 4.795317-2.497561l524.787513-419.790049c0.099902-2.597463 0.099902-2.597463 2.597463-2.597463z m-483.228098-17.083317h429.580488L211.893073 550.162732c-31.669073-78.123707-48.75239-170.833171-51.249951-278.228293l119.583219-117.285463z" p-id="13798"></path></svg>